<?xml version="1.0" encoding="utf-8"?>
<!-- Generator: Adobe Illustrator 16.0.3, SVG Export Plug-In . SVG Version: 6.00 Build 0)  -->
<!DOCTYPE svg PUBLIC "-//W3C//DTD SVG 1.1//EN" "http://www.w3.org/Graphics/SVG/1.1/DTD/svg11.dtd">
<svg version="1.1" id="Capa_1" xmlns="http://www.w3.org/2000/svg" xmlns:xlink="http://www.w3.org/1999/xlink" x="0px" y="0px"
	 width="96px" height="96px" viewBox="0 0 96 96" enable-background="new 0 0 96 96" xml:space="preserve">
<g id="Capa_1_1_">
</g>
<g id="Capa_2">
	<g>
		<path fill="#8BC26B" d="M48.392,1.087C74.16,1.087,95,21.927,95,47.697c0,25.71-20.84,46.549-46.608,46.549
			c-25.711,0-46.55-20.839-46.55-46.549C1.842,21.927,22.681,1.087,48.392,1.087L48.392,1.087z"/>
		<path fill="#7AAF58" d="M48.392,1.087C74.16,1.087,95,21.927,95,47.697c0,25.71-20.84,46.549-46.608,46.549V1.087z"/>
		<path fill="#E1F23F" d="M57.549,33.784c1.232,0.587,2.406,1.292,3.463,2.113l0,0l3.11-3.112l0,0c0.705-0.703,1.88-0.703,2.584,0
			l0,0l3.11,3.112c0.705,0.704,0.705,1.878,0,2.583l0,0c-0.705,0.704-1.818,0.704-2.523,0l-1.879-1.879l-1.878,1.82
			c2.055,2.524,3.464,5.811,3.932,9.803l0.53-0.528l0,0c0.703-0.706,1.818-0.706,2.523,0l0,0l3.17,3.111
			c0.703,0.704,0.703,1.819,0,2.523l0,0c-0.705,0.705-1.879,0.705-2.524,0l-1.878-1.819l-1.703,1.646
			c-0.177,3.228-0.88,6.281-1.995,8.979l2.229,0.06l0,0c0.998,0,1.82,0.822,1.82,1.762l0,0l-0.06,4.461
			c0,0.998-0.822,1.762-1.819,1.762l0,0c-0.938,0-1.761-0.822-1.761-1.762v-2.643l-2.172-0.06
			c-3.522,5.812-9.101,9.568-15.438,9.568c-6.281,0-11.858-3.757-15.38-9.568l-2.172,0.06v2.643c0,0.938-0.821,1.762-1.761,1.762
			l0,0c-0.998,0-1.819-0.764-1.819-1.762L27.2,63.957l0,0c0-0.939,0.822-1.762,1.82-1.762l0,0l2.23-0.06
			c-1.115-2.698-1.82-5.753-1.996-8.979l-1.702-1.646l-1.878,1.819c-0.646,0.705-1.819,0.705-2.524,0l0,0
			c-0.705-0.704-0.705-1.819,0-2.523l3.17-3.111l0,0c0.704-0.706,1.819-0.706,2.524,0l0,0l0.528,0.528
			c0.469-3.992,1.878-7.279,3.933-9.803l-1.878-1.82l-1.878,1.879c-0.705,0.704-1.82,0.704-2.524,0l0,0
			c-0.704-0.705-0.704-1.879,0-2.583l3.111-3.112l0,0c0.704-0.703,1.878-0.703,2.524,0l0,0l3.169,3.112l0,0
			c1.056-0.821,2.23-1.526,3.463-2.113c-0.059-0.293-0.118-0.646-0.118-0.999c0-3.11,1.584-6.75,4.52-8.628l-1.525-1.526
			l-1.116,1.116c-0.411,0.411-1.056,0.411-1.468,0l0,0c-0.469-0.412-0.469-1.116,0-1.526l1.82-1.82l0,0
			c0.411-0.411,1.115-0.411,1.526,0l0,0l2.817,2.817c0.822-0.293,1.702-0.411,2.642-0.411c0.999,0,1.877,0.118,2.7,0.411
			l2.817-2.817l0,0c0.411-0.411,1.114-0.411,1.526,0l0,0l1.818,1.82c0.469,0.411,0.469,1.115,0,1.526l0,0
			c-0.41,0.411-1.057,0.411-1.466,0l-1.117-1.116l-1.524,1.526c2.935,1.878,4.519,5.518,4.519,8.628
			C57.665,33.139,57.605,33.491,57.549,33.784L57.549,33.784z"/>
		<path fill="#B3D810" d="M57.549,33.784c1.232,0.587,2.406,1.292,3.463,2.113l0,0l3.11-3.112l0,0c0.705-0.703,1.88-0.703,2.584,0
			l0,0l3.11,3.112c0.705,0.704,0.705,1.878,0,2.583l0,0c-0.705,0.704-1.818,0.704-2.523,0l-1.879-1.879l-1.878,1.82
			c2.055,2.524,3.464,5.811,3.932,9.803l0.53-0.528l0,0c0.703-0.706,1.818-0.706,2.523,0l0,0l3.17,3.111
			c0.703,0.704,0.703,1.819,0,2.523l0,0c-0.705,0.705-1.879,0.705-2.524,0l-1.878-1.819l-1.703,1.646
			c-0.177,3.228-0.88,6.281-1.995,8.979l2.229,0.06l0,0c0.998,0,1.82,0.822,1.82,1.762l0,0l-0.06,4.461
			c0,0.998-0.822,1.762-1.819,1.762l0,0c-0.938,0-1.761-0.822-1.761-1.762v-2.643l-2.172-0.06
			c-3.522,5.812-9.101,9.568-15.438,9.568V22.807c1,0,1.878,0.118,2.7,0.411l2.817-2.817l0,0c0.412-0.411,1.115-0.411,1.527,0l0,0
			l1.817,1.82c0.47,0.411,0.47,1.115,0,1.526l0,0c-0.41,0.411-1.058,0.411-1.466,0l-1.117-1.116l-1.525,1.526
			c2.936,1.878,4.52,5.518,4.52,8.628C57.665,33.139,57.605,33.491,57.549,33.784L57.549,33.784z"/>
	</g>
</g>
</svg>
