<?xml version="1.0" encoding="utf-8"?>
<!-- Generator: Adobe Illustrator 16.0.3, SVG Export Plug-In . SVG Version: 6.00 Build 0)  -->
<!DOCTYPE svg PUBLIC "-//W3C//DTD SVG 1.1//EN" "http://www.w3.org/Graphics/SVG/1.1/DTD/svg11.dtd">
<svg version="1.1" id="Capa_1" xmlns="http://www.w3.org/2000/svg" xmlns:xlink="http://www.w3.org/1999/xlink" x="0px" y="0px"
	 width="96px" height="96px" viewBox="0 0 96 96" enable-background="new 0 0 96 96" xml:space="preserve">
<g id="Capa_1_1_">
</g>
<g id="Capa_2">
	<g>
		<path fill="#4D5054" d="M49.617,2.177C75.234,2.177,96,22.941,96,48.617C96,74.236,75.236,95,49.617,95
			C23.94,95,3.176,74.236,3.176,48.617C3.176,22.94,23.94,2.177,49.617,2.177L49.617,2.177z"/>
		<path fill="#353A3F" d="M49.617,2.177C75.234,2.177,96,22.941,96,48.617C96,74.236,75.236,95,49.617,95V2.177z"/>
		<path fill="#F5B302" d="M49.617,12.764c5.672,0,11.113,1.345,15.908,3.744c-2.047-0.586-4.151-0.878-6.375-0.878
			c-13.453,0-24.332,10.938-24.332,24.391c0,13.454,10.879,24.333,24.332,24.333c13.452,0,24.392-10.879,24.392-24.333
			c0-1.288-0.118-2.573-0.294-3.802c1.404,3.86,2.164,8.013,2.164,12.399c0,19.771-16.025,35.796-35.795,35.796
			c-19.829,0-35.854-16.025-35.854-35.796C13.763,28.79,29.789,12.764,49.617,12.764L49.617,12.764z"/>
		<path fill="#FD7300" d="M49.617,12.764c5.672,0,11.113,1.345,15.908,3.744c-2.047-0.586-4.151-0.878-6.375-0.878
			c-3.393,0-6.608,0.702-9.533,1.989V12.764z M49.617,62.421c2.925,1.229,6.142,1.931,9.533,1.931
			c13.452,0,24.392-10.879,24.392-24.332c0-1.288-0.118-2.573-0.294-3.802c1.404,3.86,2.164,8.013,2.164,12.399
			c0,19.771-16.025,35.796-35.795,35.796V62.421z"/>
	</g>
</g>
</svg>
