<?xml version="1.0" encoding="utf-8"?>
<!-- Generator: Adobe Illustrator 16.0.3, SVG Export Plug-In . SVG Version: 6.00 Build 0)  -->
<!DOCTYPE svg PUBLIC "-//W3C//DTD SVG 1.1//EN" "http://www.w3.org/Graphics/SVG/1.1/DTD/svg11.dtd">
<svg version="1.1" id="Capa_1" xmlns="http://www.w3.org/2000/svg" xmlns:xlink="http://www.w3.org/1999/xlink" x="0px" y="0px"
	 width="96px" height="96px" viewBox="0 0 96 96" enable-background="new 0 0 96 96" xml:space="preserve">
<g>
	<path fill-rule="evenodd" clip-rule="evenodd" fill="#991629" d="M48.5,0.56C74.763,0.56,96,21.797,96,48
		c0,26.203-21.237,47.439-47.5,47.439C22.297,95.439,1.06,74.203,1.06,48C1.06,21.797,22.297,0.56,48.5,0.56L48.5,0.56z"/>
	<path fill-rule="evenodd" clip-rule="evenodd" fill="#891322" d="M48.5,0.56C74.763,0.56,96,21.797,96,48
		c0,26.203-21.237,47.439-47.5,47.439V0.56z"/>
	<path fill-rule="evenodd" clip-rule="evenodd" fill="#E1F23F" d="M37.612,16.413c24.288-14.117,54.2,6.701,47.32,37.031
		C77.574,85.51,46.167,89.518,21.46,78.689c-5.623-2.453-5.384-7.18-0.777-10.768C44.911,49.256,47.244,38.249,48.799,38.07
		c2.153-0.239-0.658,17.288,4.248,18.844c5.324,1.615,14.597-8.316,14.357-20.939c-0.18-12.623-13.102-20.04-29.731-17.229
		C33.544,19.404,33.844,18.567,37.612,16.413L37.612,16.413z M46.705,61.221c-3.11,2.752-2.812,2.633-8.794,8.137
		c-3.35,3.051-4.367,3.709-3.709,3.889c1.496,0.479,14.179,0.119,11.726-9.035c-0.12-0.418,0.897-2.033,1.256-2.871
		C47.483,60.504,47.064,60.863,46.705,61.221L46.705,61.221z"/>
	<path fill-rule="evenodd" clip-rule="evenodd" fill="#B3D810" d="M48.5,12.405c21.417-3.769,42.295,15.136,36.433,41.039
		C80.146,74.262,65.19,83.236,48.5,84.014V38.189c0.12-0.06,0.239-0.119,0.299-0.119c2.153-0.239-0.658,17.288,4.248,18.844
		c5.324,1.615,14.597-8.316,14.357-20.939c-0.18-9.691-7.777-16.331-18.904-17.588V12.405z"/>
</g>
</svg>
