<?xml version="1.0" encoding="utf-8"?>
<!-- Generator: Adobe Illustrator 16.0.3, SVG Export Plug-In . SVG Version: 6.00 Build 0)  -->
<!DOCTYPE svg PUBLIC "-//W3C//DTD SVG 1.1//EN" "http://www.w3.org/Graphics/SVG/1.1/DTD/svg11.dtd">
<svg version="1.1" id="Capa_1" xmlns="http://www.w3.org/2000/svg" xmlns:xlink="http://www.w3.org/1999/xlink" x="0px" y="0px"
	 width="96px" height="96px" viewBox="0 0 96 96" enable-background="new 0 0 96 96" xml:space="preserve">
<g>
	<path fill-rule="evenodd" clip-rule="evenodd" fill="#F5B302" d="M47.725,1.567C73.587,1.567,94.5,22.48,94.5,48.283
		S73.587,95,47.725,95C21.922,95,1.009,74.086,1.009,48.283S21.922,1.567,47.725,1.567L47.725,1.567z"/>
	<path fill-rule="evenodd" clip-rule="evenodd" fill="#FB8500" d="M47.725,1.567C73.587,1.567,94.5,22.48,94.5,48.283
		S73.587,95,47.725,95V1.567z"/>
	<path fill-rule="evenodd" clip-rule="evenodd" fill="#FFFFFF" d="M20.508,62.069l31.046-48.013c2.062-3.24,2.533-3.652,1.473,0.353
		l-7.542,28.218l28.868-9.897C75.59,32.26,75.59,33.556,75,34.498L43.955,82.511c-2.062,3.239-2.533,3.652-1.473-0.353l7.541-28.219
		l-28.866,9.896C19.919,64.307,19.919,63.011,20.508,62.069L20.508,62.069z"/>
	<path fill-rule="evenodd" clip-rule="evenodd" fill="#FFCC00" d="M47.725,19.888l3.83-5.832c2.062-3.24,2.533-3.652,1.473,0.353
		l-5.303,19.735V19.888z M47.725,41.862l26.629-9.131C75.59,32.26,75.59,33.556,75,34.498L47.725,76.679V62.422l2.298-8.482
		l-2.298,0.766V41.862z"/>
</g>
</svg>
