<?xml version="1.0" encoding="utf-8"?>
<!-- Generator: Adobe Illustrator 16.0.3, SVG Export Plug-In . SVG Version: 6.00 Build 0)  -->
<!DOCTYPE svg PUBLIC "-//W3C//DTD SVG 1.1//EN" "http://www.w3.org/Graphics/SVG/1.1/DTD/svg11.dtd">
<svg version="1.1" id="Capa_1" xmlns="http://www.w3.org/2000/svg" xmlns:xlink="http://www.w3.org/1999/xlink" x="0px" y="0px"
	 width="96px" height="96px" viewBox="0 0 96 96" enable-background="new 0 0 96 96" xml:space="preserve">
<g id="Capa_1_1_">
</g>
<g id="Capa_2">
	<g>
		<path fill="#D492D4" d="M48.304,2.021c25.621,0,46.441,20.765,46.441,46.442c0,25.617-20.82,46.383-46.441,46.383
			c-25.619,0-46.383-20.766-46.383-46.383C1.921,22.785,22.685,2.021,48.304,2.021L48.304,2.021z"/>
		<path fill="#BF72C1" d="M48.304,2.021c25.621,0,46.441,20.765,46.441,46.442c0,25.617-20.82,46.383-46.441,46.383V2.021z"/>
		<path fill="#4DA7C8" d="M21.809,24.013c-0.937,2.515,13.042,19.419,12.925,26.204c-0.058,3.274-15.967,8.715-12.049,9.826
			c2.574,0.762,11.874-0.702,11.289,1.755c-0.644,2.457-6.96,11.99-5.03,11.406c3.86-1.229,12.575-6.961,17.43-14.155
			c1.639-2.457,2.224-2.515,3.919,0c4.796,7.252,13.512,12.926,17.432,14.155c1.871,0.584-4.447-8.949-5.031-11.406
			c-0.644-2.457,8.717-0.993,11.287-1.755c3.92-1.111-11.988-6.552-12.047-9.826c-0.178-6.785,13.861-23.688,12.867-26.204
			c-0.876-2.339-15.91,7.72-23.748,15.851c-2.631,2.69-3.1,2.456-5.439,0C37.775,31.733,22.685,21.674,21.809,24.013L21.809,24.013z
			"/>
		<path fill="#306F9B" d="M48.304,57.177c0.584,0,1.17,0.644,1.989,1.872c4.796,7.252,13.512,12.926,17.432,14.155
			c1.871,0.584-4.447-8.949-5.031-11.406c-0.644-2.457,8.717-0.993,11.287-1.755c3.92-1.111-11.988-6.552-12.047-9.826
			c-0.178-6.785,13.861-23.688,12.867-26.204c-0.876-2.339-15.91,7.72-23.748,15.851c-1.229,1.286-1.988,1.871-2.749,1.93V57.177z"
			/>
	</g>
</g>
</svg>
