<?xml version="1.0" encoding="utf-8"?>
<!-- Generator: Adobe Illustrator 16.0.3, SVG Export Plug-In . SVG Version: 6.00 Build 0)  -->
<!DOCTYPE svg PUBLIC "-//W3C//DTD SVG 1.1//EN" "http://www.w3.org/Graphics/SVG/1.1/DTD/svg11.dtd">
<svg version="1.1" id="Capa_1" xmlns="http://www.w3.org/2000/svg" xmlns:xlink="http://www.w3.org/1999/xlink" x="0px" y="0px"
	 width="96px" height="96px" viewBox="0 0 96 96" enable-background="new 0 0 96 96" xml:space="preserve">
<g>
	<path fill-rule="evenodd" clip-rule="evenodd" fill="#C28A5F" d="M48.489,1c26.29,0,47.548,21.259,47.548,47.55
		c0,26.229-21.259,47.488-47.548,47.488C22.259,96.038,1,74.778,1,48.55C1,22.259,22.259,1,48.489,1L48.489,1z"/>
	<path fill-rule="evenodd" clip-rule="evenodd" fill="#AA734F" d="M48.489,1c26.29,0,47.548,21.259,47.548,47.55
		c0,26.229-21.259,47.488-47.548,47.488V1z"/>
	<path fill-rule="evenodd" clip-rule="evenodd" fill="#E1F23F" d="M28.428,18.667L28.428,18.667c3.114,0,5.689,2.574,5.689,5.749
		v11.318c0,3.114-2.575,5.689-5.689,5.689l0,0c-3.173,0-5.749-2.576-5.749-5.689V24.416C22.679,21.241,25.254,18.667,28.428,18.667
		L28.428,18.667z M57.113,69.09c2.574,0,4.671,2.097,4.671,4.671v3.773c0,2.575-2.157,4.73-4.671,4.73h-15.93
		c-2.575,0-4.671-2.155-4.671-4.73v-3.773c0-2.574,2.096-4.671,4.671-4.671H57.113z M69.63,43.938c2.574,0,4.729,2.096,4.729,4.672
		v13.354c0,2.575-2.155,4.731-4.729,4.731c-7.428,0-14.912,0-22.338,0c-2.456,0-4.432-2.037-4.432-4.492
		c0-2.396,1.977-4.432,4.432-4.432h5.688V48.61c0-2.576,2.096-4.672,4.672-4.672H69.63z M27.409,43.938
		c-2.575,0-4.73,2.096-4.73,4.672v13.354c0,2.575,2.155,4.731,4.73,4.731h8.324c2.575,0,4.672-2.156,4.672-4.731v-6.588h4.431
		c3.173,0,5.75-2.575,5.75-5.749c0-3.115-2.576-5.689-5.75-5.689C39.027,43.938,33.219,43.938,27.409,43.938L27.409,43.938z
		 M69.27,21.181L69.27,21.181c2.755,0,5.09,2.276,5.09,5.091v10.06c0,2.815-2.335,5.091-5.09,5.091l0,0
		c-2.813,0-5.091-2.276-5.091-5.091v-10.06C64.179,23.458,66.456,21.181,69.27,21.181L69.27,21.181z M42.262,14.834L42.262,14.834
		c3.114,0,5.688,2.574,5.688,5.689v15.211c0,3.114-2.574,5.689-5.688,5.689l0,0c-3.175,0-5.75-2.576-5.75-5.689V20.523
		C36.512,17.408,39.087,14.834,42.262,14.834L42.262,14.834z M56.034,18.667L56.034,18.667c3.174,0,5.75,2.574,5.75,5.749v11.318
		c0,3.114-2.576,5.689-5.75,5.689l0,0c-3.113,0-5.688-2.576-5.688-5.689V24.416C50.346,21.241,52.921,18.667,56.034,18.667
		L56.034,18.667z"/>
	<path fill-rule="evenodd" clip-rule="evenodd" fill="#B3D810" d="M48.489,82.204V69.09h8.625c2.574,0,4.671,2.097,4.671,4.671
		v3.773c0,2.575-2.157,4.67-4.671,4.67H48.489z M48.489,66.695v-8.924h4.492V48.61c0-2.576,2.096-4.672,4.672-4.672H69.63
		c2.574,0,4.729,2.096,4.729,4.672v13.354c0,2.575-2.155,4.731-4.729,4.731H48.489z M48.489,54.059v-8.804
		c1.257,1.079,2.097,2.636,2.097,4.372C50.586,51.423,49.746,52.98,48.489,54.059L48.489,54.059z M69.27,21.181L69.27,21.181
		c2.755,0,5.09,2.276,5.09,5.091v10.06c0,2.815-2.335,5.091-5.09,5.091l0,0c-2.813,0-5.091-2.276-5.091-5.091v-10.06
		C64.179,23.458,66.456,21.181,69.27,21.181L69.27,21.181z M56.034,18.667L56.034,18.667c3.174,0,5.75,2.574,5.75,5.749v11.318
		c0,3.114-2.576,5.689-5.75,5.689l0,0c-3.113,0-5.688-2.576-5.688-5.689V24.416C50.346,21.241,52.921,18.667,56.034,18.667
		L56.034,18.667z"/>
</g>
</svg>
