<?xml version="1.0" encoding="utf-8"?>
<!-- Generator: Adobe Illustrator 16.0.3, SVG Export Plug-In . SVG Version: 6.00 Build 0)  -->
<!DOCTYPE svg PUBLIC "-//W3C//DTD SVG 1.1//EN" "http://www.w3.org/Graphics/SVG/1.1/DTD/svg11.dtd">
<svg version="1.1" id="Capa_1" xmlns="http://www.w3.org/2000/svg" xmlns:xlink="http://www.w3.org/1999/xlink" x="0px" y="0px"
	 width="96px" height="96px" viewBox="0 0 96 96" enable-background="new 0 0 96 96" xml:space="preserve">
<g>
	<path fill-rule="evenodd" clip-rule="evenodd" fill="#E4634A" d="M47.97,1.01c26.276,0,47.525,21.248,47.525,47.465
		C95.495,74.752,74.246,96,47.97,96C21.752,96,0.504,74.752,0.504,48.475C0.504,22.258,21.752,1.01,47.97,1.01L47.97,1.01z"/>
	<path fill-rule="evenodd" clip-rule="evenodd" fill="#FF4D00" d="M47.97,1.01c26.276,0,47.525,21.248,47.525,47.465
		C95.495,74.752,74.246,96,47.97,96V1.01z"/>
	<path fill-rule="evenodd" clip-rule="evenodd" fill="#BA0000" d="M16.964,59.488c1.376,0.479,1.795,3.412,4.429,3.173
		c1.317-0.12,1.078-0.42,0.539-1.557c-1.496-3.292-5.387-12.15-2.035-18.256c4.19-7.542,7.722-10.714,8.081-12.57
		c0.299-1.795,2.514,2.515,0,7.543c-1.616,3.172-0.598,5.626,0.359,7.003c1.616,2.214,1.018,0.897,1.197-0.839
		c0.359-3.292,2.095-9.876,9.996-14.365c10.894-6.165,1.856-16.041,3.651-16.879c1.855-0.838,12.749,3.65,16.46,17.059
		c3.651,13.407-0.359,17.238,1.796,18.077c2.215,0.838,13.767-7.003,15.263-10.176c0.359-0.719,0.838-0.479,1.257,0.479
		c1.377,3.112,2.096,13.408-5.506,20.111c-0.779,0.659-1.497,1.557,0.059,1.438c2.515-0.12,6.705-0.839,9.758-3.651
		c1.735-1.497,2.514-4.19,2.094,0.358c-0.299,3.113-2.034,8.201-9.457,12.151c-5.147,2.753-8.619,8.499-14.425,12.21
		c-6.105,3.891-14.904,4.489-21.728,2.334c-8.619-2.633-6.465-9.396-15.383-13.587c-4.729-2.215-6.943-7.78-7.003-9.576
		C16.366,59.488,16.485,59.368,16.964,59.488L16.964,59.488z"/>
	<path fill-rule="evenodd" clip-rule="evenodd" fill="#840000" d="M47.97,14.117c4.011,2.216,9.277,7.123,11.672,15.683
		c3.651,13.407-0.359,17.238,1.796,18.077c2.215,0.838,13.767-7.003,15.263-10.176c0.359-0.719,0.838-0.479,1.257,0.479
		c1.377,3.112,2.096,13.408-5.506,20.111c-0.779,0.659-1.497,1.557,0.059,1.438c2.515-0.12,6.705-0.839,9.758-3.651
		c1.735-1.497,2.514-4.19,2.094,0.358c-0.299,3.113-2.034,8.201-9.457,12.151c-5.147,2.753-8.619,8.499-14.425,12.21
		c-3.532,2.274-8.021,3.412-12.51,3.592V14.117z"/>
	<path fill-rule="evenodd" clip-rule="evenodd" fill="#F5B302" d="M46.413,82.294c0,0-8.26-0.24-10.475-4.849
		c-2.274-4.609,2.214-5.746,0.479-8.2c-1.736-2.454-2.993-4.608-1.137-3.951c1.795,0.659,7.003,4.19,7.242,1.197
		c0.24-3.053-2.693-7.123-0.06-10.295c2.574-3.172,5.327-4.011,5.447-7.781c0.06-3.771,3.233,2.155,1.317,5.147
		c-1.916,3.053-3.771,3.891-0.718,6.105c2.993,2.274,3.771,1.257,3.591,3.951c-0.18,2.692,3.891,4.189,6.165,0.538
		c2.274-3.711-1.138-8.619-0.479-8.499c0.659,0.18,4.789,6.644,2.515,10.833c-1.077,1.976-1.018,2.813-0.658,3.651
		C64.011,80.259,54.733,82.533,46.413,82.294L46.413,82.294z"/>
	<path fill-rule="evenodd" clip-rule="evenodd" fill="#FD7300" d="M47.97,47.577c0.539-1.855,2.993,3.292,1.257,5.985
		c-0.419,0.719-0.838,1.258-1.257,1.796V47.577z M47.97,59.309c0.179,0.12,0.359,0.24,0.539,0.359
		c2.993,2.274,3.771,1.257,3.591,3.951c-0.18,2.692,3.891,4.189,6.165,0.538c2.274-3.711-1.138-8.619-0.479-8.499
		c0.659,0.18,4.789,6.644,2.515,10.833c-1.077,1.976-1.018,2.813-0.658,3.651c4.07,9.458-3.771,12.031-11.672,12.151V59.309z"/>
</g>
</svg>
