<?xml version="1.0" encoding="utf-8"?>
<!-- Generator: Adobe Illustrator 16.0.3, SVG Export Plug-In . SVG Version: 6.00 Build 0)  -->
<!DOCTYPE svg PUBLIC "-//W3C//DTD SVG 1.1//EN" "http://www.w3.org/Graphics/SVG/1.1/DTD/svg11.dtd">
<svg version="1.1" xmlns="http://www.w3.org/2000/svg" xmlns:xlink="http://www.w3.org/1999/xlink" x="0px" y="0px" width="96px"
	 height="96px" viewBox="0 0 96 96" enable-background="new 0 0 96 96" xml:space="preserve">
<g id="Capa_1">
</g>
<g id="Capa_2">
	<g>
		<path fill-rule="evenodd" clip-rule="evenodd" fill="#4DA7C8" d="M48.029,2.176c25.343,0,45.883,20.541,45.883,45.941
			C93.912,73.46,73.372,94,48.029,94C22.686,94,2.088,73.46,2.088,48.117C2.088,22.716,22.686,2.176,48.029,2.176L48.029,2.176z"/>
		<path fill-rule="evenodd" clip-rule="evenodd" fill="#306F9B" d="M48.029,2.176c25.343,0,45.883,20.541,45.883,45.941
			C93.912,73.46,73.372,94,48.029,94V2.176z"/>
		<path fill-rule="evenodd" clip-rule="evenodd" fill="#FFFFFF" d="M30.15,46.496c26.905-20.134,41.717-31.707,46.057-29.103
			c4.281,2.489-13.944,20.541-13.077,23.492c0.926,2.95,14.871,3.066,14.986,5.265c0.173,2.199-12.439,5.15-13.366,7.638
			c-0.868,2.547,13.366,6.944,13.251,10.01c-0.174,3.066-16.896-1.156-17.938,1.041c-1.041,2.199,2.778,9.489,0.232,11.227
			c-2.604,1.734-12.846-7.407-14.928-5.787c-2.025,1.62-2.604,9.837-13.655,8.795C24.306,78.378,18.751,72.881,18,66.054
			C17.016,56.911,23.612,51.357,30.15,46.496L30.15,46.496z"/>
		<path fill-rule="evenodd" clip-rule="evenodd" fill="#E8E8E5" d="M48.029,33.131c15.738-11.63,24.88-17.705,28.178-15.738
			c4.281,2.489-13.944,20.541-13.077,23.492c0.926,2.95,14.871,3.066,14.986,5.265c0.173,2.199-12.439,5.15-13.366,7.638
			c-0.868,2.547,13.366,6.944,13.251,10.01c-0.174,3.066-16.896-1.156-17.938,1.041c-1.041,2.199,2.778,9.489,0.232,11.227
			c-2.025,1.33-8.448-3.704-12.267-5.439V33.131z"/>
	</g>
</g>
</svg>
