<?xml version="1.0" encoding="utf-8"?>
<!-- Generator: Adobe Illustrator 16.0.3, SVG Export Plug-In . SVG Version: 6.00 Build 0)  -->
<!DOCTYPE svg PUBLIC "-//W3C//DTD SVG 1.1//EN" "http://www.w3.org/Graphics/SVG/1.1/DTD/svg11.dtd">
<svg version="1.1" id="Capa_1" xmlns="http://www.w3.org/2000/svg" xmlns:xlink="http://www.w3.org/1999/xlink" x="0px" y="0px"
	 width="96px" height="96px" viewBox="0 0 96 96" enable-background="new 0 0 96 96" xml:space="preserve">
<g>
	<path fill-rule="evenodd" clip-rule="evenodd" fill="#555899" d="M47.561,0.998c26.236,0,47.501,21.265,47.501,47.501
		C95.062,74.734,73.797,96,47.561,96S0,74.734,0,48.499C0,22.262,21.324,0.998,47.561,0.998L47.561,0.998z"/>
	<path fill-rule="evenodd" clip-rule="evenodd" fill="#494A90" d="M47.561,0.998c26.236,0,47.501,21.265,47.501,47.501
		C95.062,74.734,73.797,96,47.561,96V0.998z"/>
	<path fill-rule="evenodd" clip-rule="evenodd" fill="#FFFFFF" d="M4.912,50.297c-0.659,8.265,4.373-8.207,16.054-12.52
		C42.589,29.81,46.303,51.793,53.79,60c18.689,20.306,39.775-4.731,30.069-27.135C68.166-3.734,8.386,8.125,4.912,50.297
		L4.912,50.297z M83.321,61.855c-0.3,1.619,0.12,2.157,0.959,2.337c1.557,0.3,2.396,0.479,3.354,1.737
		c1.018,1.317,2.275,0.539,2.216-2.157C89.731,59.58,84.34,57.244,83.321,61.855L83.321,61.855z M48.878,71.501
		c-0.06,2.037,2.037,1.437,3.235,1.316c0.538,0,1.019,0,1.378,0.42c1.077,1.259,2.156-0.359,3.953,0.42
		c4.134,1.737,2.575-7.248-2.815-7.487C52.174,66.05,48.998,67.547,48.878,71.501L48.878,71.501z M68.706,60.06
		c-3.056,3.594-9.045,1.438-12.041-1.197c-2.995-2.576-3.413-7.009-0.898-9.943C58.883,45.264,71.82,56.525,68.706,60.06
		L68.706,60.06z M76.073,59.4c2.216-0.239,4.972-3.233,5.632-6.05c0.778-3.174-0.898-6.229-3.715-6.829
		C73.498,45.684,71.701,59.819,76.073,59.4L76.073,59.4z"/>
	<path fill-rule="evenodd" clip-rule="evenodd" fill="#E8E8E5" d="M47.561,50.236c2.096,3.714,4.014,7.308,6.229,9.764
		c18.689,20.306,39.775-4.731,30.069-27.135C77.151,17.23,62.476,10.462,47.561,11.061V50.236z M83.321,61.855
		c-0.3,1.619,0.12,2.157,0.959,2.337c1.557,0.3,2.396,0.479,3.354,1.737c1.018,1.317,2.275,0.539,2.216-2.157
		C89.731,59.58,84.34,57.244,83.321,61.855L83.321,61.855z M48.878,71.501c-0.06,2.037,2.037,1.437,3.235,1.316
		c0.538,0,1.019,0,1.378,0.42c1.077,1.259,2.156-0.359,3.953,0.42c4.134,1.737,2.575-7.248-2.815-7.487
		C52.174,66.05,48.998,67.547,48.878,71.501L48.878,71.501z M68.706,60.06c-3.056,3.594-9.045,1.438-12.041-1.197
		c-2.995-2.576-3.413-7.009-0.898-9.943C58.883,45.264,71.82,56.525,68.706,60.06L68.706,60.06z M76.073,59.4
		c2.216-0.239,4.972-3.233,5.632-6.05c0.778-3.174-0.898-6.229-3.715-6.829C73.498,45.684,71.701,59.819,76.073,59.4L76.073,59.4z"
		/>
</g>
</svg>
