<?xml version="1.0" encoding="utf-8"?>
<!-- Generator: Adobe Illustrator 16.0.3, SVG Export Plug-In . SVG Version: 6.00 Build 0)  -->
<!DOCTYPE svg PUBLIC "-//W3C//DTD SVG 1.1//EN" "http://www.w3.org/Graphics/SVG/1.1/DTD/svg11.dtd">
<svg version="1.1" id="Capa_1" xmlns="http://www.w3.org/2000/svg" xmlns:xlink="http://www.w3.org/1999/xlink" x="0px" y="0px"
	 width="96px" height="96px" viewBox="0 0 96 96" enable-background="new 0 0 96 96" xml:space="preserve">
<g>
	<path fill-rule="evenodd" clip-rule="evenodd" fill="#43AB53" d="M47.97,0c26.553,0,48.026,21.472,48.026,47.965
		c0,26.554-21.473,48.025-48.026,48.025c-26.493,0-47.965-21.472-47.965-48.025C0.005,21.472,21.478,0,47.97,0L47.97,0z"/>
	<path fill-rule="evenodd" clip-rule="evenodd" fill="#3E8C23" d="M47.97,0c26.553,0,48.026,21.472,48.026,47.965
		c0,26.554-21.473,48.025-48.026,48.025V0z"/>
	<path fill-rule="evenodd" clip-rule="evenodd" fill="#E1F23F" d="M45.914,14.214c-9.375,7.621-37.017,41.917-4.657,59.941
		c7.137,3.992,4.778,12.581,4.778,12.581c0.847,0.182,2.964,0.182,3.811,0c0,0-2.359-8.528,4.778-12.581
		c36.774-20.988,2.419-34.598-4.597-59.881C49.422,12.097,47.547,12.883,45.914,14.214L45.914,14.214z"/>
	<path fill-rule="evenodd" clip-rule="evenodd" fill="#B3D810" d="M47.97,86.857c0.726,0,1.452-0.061,1.875-0.121
		c0,0-2.359-8.528,4.778-12.581c36.774-20.988,2.419-34.598-4.597-59.881c-0.363-1.271-1.15-1.513-2.057-1.271V86.857z"/>
</g>
</svg>
