<?xml version="1.0" encoding="utf-8"?>
<!-- Generator: Adobe Illustrator 16.0.3, SVG Export Plug-In . SVG Version: 6.00 Build 0)  -->
<!DOCTYPE svg PUBLIC "-//W3C//DTD SVG 1.1//EN" "http://www.w3.org/Graphics/SVG/1.1/DTD/svg11.dtd">
<svg version="1.1" id="Capa_1" xmlns="http://www.w3.org/2000/svg" xmlns:xlink="http://www.w3.org/1999/xlink" x="0px" y="0px"
	 width="96px" height="96px" viewBox="0 0 96 96" enable-background="new 0 0 96 96" xml:space="preserve">
<g>
	<path fill-rule="evenodd" clip-rule="evenodd" fill="#775124" d="M47.775,0.255c26.355,0,47.716,21.36,47.716,47.715
		c0,26.415-21.36,47.775-47.716,47.775C21.421,95.745,0,74.385,0,47.97C0,21.615,21.421,0.255,47.775,0.255L47.775,0.255z"/>
	<path fill-rule="evenodd" clip-rule="evenodd" fill="#684419" d="M47.775,0.255c26.355,0,47.716,21.36,47.716,47.715
		c0,26.415-21.36,47.775-47.716,47.775V0.255z"/>
	<path fill-rule="evenodd" clip-rule="evenodd" fill="#87370F" d="M23.828,51.64c8.544-0.119,15.524,8.123,12.275,16.187
		c-2.587,6.438-9.567,7.582-15.163,3.972c-5.836-3.671-11.372-10.951-4.874-17.089C18.172,52.783,20.939,51.761,23.828,51.64
		L23.828,51.64z M59.328,12.709c10.59,0,9.688,17.33-1.625,16.668c-10.529-0.662-9.988-15.103,0.121-16.607
		C58.305,12.709,58.787,12.649,59.328,12.709L59.328,12.709z M29.845,15.417c14.261,0.603,12.636,21.782-0.662,22.444
		c-7.04,0.361-12.937-4.813-11.794-12.335C18.292,19.63,23.888,15.177,29.845,15.417L29.845,15.417z M78.102,35.575
		c7.281-0.061,9.627,6.799,7.642,12.815c-1.444,4.332-4.935,9.688-8.483,12.576c-4.092,3.31-8.966-0.061-10.35-4.633
		C64.563,48.632,68.654,35.454,78.102,35.575L78.102,35.575z M57.703,62.291c6.92-0.181,12.336,7.16,12.215,13.899
		c-0.12,6.138-4.693,12.034-11.07,11.974c-5.416-0.06-8.846-4.212-8.545-9.447c0.121-2.286,0.843-4.874,1.083-7.28
		C51.928,67.165,51.988,62.171,57.703,62.291L57.703,62.291z M49.641,35.395c10.169,0.06,13.599,13.357,6.739,20.277
		c-7.702,7.822-20.579-0.12-17.991-11.192C39.653,39.306,44.286,35.274,49.641,35.395L49.641,35.395z"/>
	<path fill-rule="evenodd" clip-rule="evenodd" fill="#6D280D" d="M47.775,58.74V35.515c0.602-0.061,1.204-0.12,1.865-0.12
		c10.169,0.06,13.599,13.357,6.739,20.277C53.854,58.26,50.724,59.102,47.775,58.74L47.775,58.74z M59.328,12.709
		c10.59,0,9.688,17.33-1.625,16.668c-10.529-0.662-9.988-15.103,0.121-16.607C58.305,12.709,58.787,12.649,59.328,12.709
		L59.328,12.709z M78.102,35.575c7.281-0.061,9.627,6.799,7.642,12.815c-1.444,4.332-4.935,9.688-8.483,12.576
		c-4.092,3.31-8.966-0.061-10.35-4.633C64.563,48.632,68.654,35.454,78.102,35.575L78.102,35.575z M57.703,62.291
		c6.92-0.181,12.336,7.16,12.215,13.899c-0.12,6.138-4.693,12.034-11.07,11.974c-5.416-0.06-8.846-4.212-8.545-9.447
		c0.121-2.286,0.843-4.874,1.083-7.28C51.928,67.165,51.988,62.171,57.703,62.291L57.703,62.291z"/>
</g>
</svg>
