<?xml version="1.0" encoding="utf-8"?>
<!-- Generator: Adobe Illustrator 16.0.3, SVG Export Plug-In . SVG Version: 6.00 Build 0)  -->
<!DOCTYPE svg PUBLIC "-//W3C//DTD SVG 1.1//EN" "http://www.w3.org/Graphics/SVG/1.1/DTD/svg11.dtd">
<svg version="1.1" id="Capa_1" xmlns="http://www.w3.org/2000/svg" xmlns:xlink="http://www.w3.org/1999/xlink" x="0px" y="0px"
	 width="96px" height="96px" viewBox="0 0 96 96" enable-background="new 0 0 96 96" xml:space="preserve">
<g>
	<g>
		<path fill-rule="evenodd" clip-rule="evenodd" fill="#8ACDD3" d="M48.337,1c25.929,0,46.896,20.967,46.896,46.836
			S74.266,94.672,48.337,94.672c-25.869,0-46.835-20.966-46.835-46.835S22.468,1,48.337,1L48.337,1z"/>
		<path fill-rule="evenodd" clip-rule="evenodd" fill="#4DA7C8" d="M48.337,1c25.929,0,46.896,20.967,46.896,46.836
			S74.266,94.672,48.337,94.672V1z"/>
		<path fill-rule="evenodd" clip-rule="evenodd" fill="#FFFFFF" d="M48.219,13.935L48.219,13.935c1.535,0,2.834,1.299,2.834,2.894
			v2.835l0.945-0.945c1.122-1.123,2.953-1.123,4.076,0l0,0c1.063,1.123,1.063,2.954,0,4.075l-5.021,4.962v15.179l13.349-7.678
			l1.831-6.792c0.413-1.536,2.009-2.481,3.485-2.068l0,0c1.535,0.415,2.479,2.009,2.065,3.545l-0.354,1.239l2.481-1.417
			c1.357-0.827,3.129-0.354,3.897,1.063l0,0c0.826,1.358,0.354,3.13-1.006,3.897l-2.479,1.417l1.24,0.354
			c1.535,0.415,2.422,2.009,2.008,3.486l0,0c-0.413,1.535-1.949,2.479-3.484,2.067l-6.792-1.832l-12.995,7.501L67.06,55.1
			l6.793-1.83c1.534-0.413,3.13,0.532,3.543,2.068l0,0c0.414,1.476-0.531,3.069-2.009,3.485l-1.298,0.354l2.479,1.417
			c1.359,0.768,1.831,2.539,1.063,3.898l0,0c-0.768,1.416-2.54,1.888-3.957,1.062l-2.421-1.417l0.295,1.24
			c0.414,1.535-0.473,3.13-2.009,3.543l0,0c-1.535,0.413-3.13-0.53-3.544-2.066l-1.771-6.792l-13.171-7.561v15.415l5.021,4.963
			c1.063,1.12,1.063,2.95,0,4.075l0,0c-1.123,1.12-2.954,1.12-4.076,0l-0.945-0.945v2.834c0,1.594-1.3,2.895-2.834,2.895l0,0
			c-1.594,0-2.894-1.301-2.894-2.895V76.01l-0.945,0.945c-1.063,1.12-2.894,1.12-4.016,0l0,0c-1.123-1.125-1.123-2.955,0-4.075
			l4.961-4.963V52.915l-12.816,7.383l-1.772,6.793c-0.414,1.536-2.008,2.421-3.543,2.008l0,0c-1.535-0.414-2.421-2.008-2.008-3.485
			l0.295-1.298L23,65.791c-1.358,0.768-3.129,0.296-3.897-1.064l0,0c-0.768-1.356-0.295-3.128,1.063-3.957l2.421-1.417l-1.24-0.294
			c-1.476-0.413-2.421-2.01-2.008-3.543l0,0c0.414-1.538,2.008-2.423,3.544-2.068l6.792,1.83l13.112-7.559L29.438,40.04
			l-6.792,1.832c-1.535,0.354-3.13-0.532-3.484-2.067l0,0c-0.413-1.536,0.473-3.13,2.008-3.545l1.241-0.293l-2.48-1.418
			c-1.359-0.827-1.832-2.599-1.004-3.957l0,0c0.768-1.359,2.54-1.831,3.897-1.063l2.481,1.418l-0.354-1.24
			c-0.414-1.477,0.531-3.071,2.008-3.485l0,0c1.535-0.414,3.13,0.472,3.543,2.008l1.832,6.792l12.994,7.501V27.756l-4.961-4.962
			c-1.123-1.122-1.123-2.952,0-4.075l0,0c1.122-1.123,2.953-1.123,4.016,0l0.945,0.945v-2.835
			C45.326,15.234,46.625,13.935,48.219,13.935L48.219,13.935z"/>
		<path fill-rule="evenodd" clip-rule="evenodd" fill="#CEEDF2" d="M48.337,13.935c1.536,0.06,2.717,1.359,2.717,2.894v2.835
			l0.945-0.945c1.122-1.123,2.953-1.123,4.076,0l0,0c1.063,1.123,1.063,2.954,0,4.075l-5.021,4.962v15.179l13.349-7.678l1.831-6.792
			c0.413-1.536,2.009-2.481,3.485-2.068l0,0c1.535,0.415,2.479,2.009,2.065,3.545l-0.354,1.239l2.481-1.417
			c1.357-0.827,3.129-0.354,3.897,1.063l0,0c0.826,1.358,0.354,3.13-1.006,3.897l-2.479,1.417l1.24,0.354
			c1.535,0.415,2.422,2.009,2.008,3.486l0,0c-0.413,1.535-1.949,2.479-3.484,2.067l-6.792-1.832l-12.995,7.501L67.06,55.1
			l6.793-1.83c1.534-0.413,3.13,0.532,3.543,2.068l0,0c0.414,1.476-0.531,3.069-2.009,3.485l-1.298,0.354l2.479,1.417
			c1.359,0.768,1.831,2.539,1.063,3.898l0,0c-0.768,1.416-2.54,1.888-3.957,1.062l-2.421-1.417l0.295,1.24
			c0.414,1.535-0.473,3.13-2.009,3.543l0,0c-1.535,0.413-3.13-0.53-3.544-2.066l-1.771-6.792l-13.171-7.561v15.415l5.021,4.963
			c1.063,1.12,1.063,2.95,0,4.075l0,0c-1.123,1.12-2.954,1.12-4.076,0l-0.945-0.945v2.834c0,1.536-1.181,2.834-2.717,2.895V13.935z"
			/>
	</g>
</g>
</svg>
