<?xml version="1.0" encoding="utf-8"?>
<!-- Generator: Adobe Illustrator 16.0.3, SVG Export Plug-In . SVG Version: 6.00 Build 0)  -->
<!DOCTYPE svg PUBLIC "-//W3C//DTD SVG 1.1//EN" "http://www.w3.org/Graphics/SVG/1.1/DTD/svg11.dtd">
<svg version="1.1" id="Capa_1" xmlns="http://www.w3.org/2000/svg" xmlns:xlink="http://www.w3.org/1999/xlink" x="0px" y="0px"
	 width="96px" height="96px" viewBox="0 0 96 96" enable-background="new 0 0 96 96" xml:space="preserve">
<g>
	<path fill-rule="evenodd" clip-rule="evenodd" fill="#A8A090" d="M47.97,1.568c26.079,0,47.275,21.138,47.275,47.216
		C95.245,74.863,74.049,96,47.97,96C21.892,96,0.755,74.863,0.755,48.784C0.755,22.706,21.892,1.568,47.97,1.568L47.97,1.568z"/>
	<path fill-rule="evenodd" clip-rule="evenodd" fill="#938A79" d="M47.97,1.568c26.079,0,47.275,21.138,47.275,47.216
		C95.245,74.863,74.049,96,47.97,96V1.568z"/>
	<path fill-rule="evenodd" clip-rule="evenodd" fill="#B04304" d="M47.97,15.5c13.456,0,24.353,21.375,24.353,39.714
		c0,35.783-48.705,35.783-48.705,0C23.618,36.876,34.514,15.5,47.97,15.5L47.97,15.5z"/>
	<path fill-rule="evenodd" clip-rule="evenodd" fill="#842F04" d="M47.97,15.5c13.456,0,24.353,21.375,24.353,39.714
		c0,17.862-12.146,26.853-24.353,26.853V15.5z"/>
</g>
</svg>
