<?xml version="1.0" encoding="utf-8"?>
<!-- Generator: Adobe Illustrator 16.0.3, SVG Export Plug-In . SVG Version: 6.00 Build 0)  -->
<!DOCTYPE svg PUBLIC "-//W3C//DTD SVG 1.1//EN" "http://www.w3.org/Graphics/SVG/1.1/DTD/svg11.dtd">
<svg version="1.1" xmlns="http://www.w3.org/2000/svg" xmlns:xlink="http://www.w3.org/1999/xlink" x="0px" y="0px" width="96px"
	 height="96px" viewBox="0 0 96 96" enable-background="new 0 0 96 96" xml:space="preserve">
<g id="Capa_1">
</g>
<g id="Capa_2">
	<g>
		<path fill-rule="evenodd" clip-rule="evenodd" fill="#8D5BA5" d="M47.791,1.755c25.771,0,46.608,20.839,46.608,46.608
			c0,25.712-20.837,46.549-46.608,46.549c-25.71,0-46.549-20.837-46.549-46.549C1.242,22.594,22.081,1.755,47.791,1.755
			L47.791,1.755z"/>
		<path fill-rule="evenodd" clip-rule="evenodd" fill="#693A84" d="M47.791,1.755c25.771,0,46.608,20.839,46.608,46.608
			c0,25.712-20.837,46.549-46.608,46.549V1.755z"/>
		<path fill-rule="evenodd" clip-rule="evenodd" fill="#FFFFFF" d="M47.791,16.547c11.271,0,20.369,9.158,20.369,20.369
			c0,6.574-3.111,12.444-7.983,16.144c-2.993,11.388-21.719,11.388-24.771,0c-4.813-3.699-7.924-9.569-7.924-16.144
			C27.481,25.705,36.58,16.547,47.791,16.547L47.791,16.547z M76.73,62.451L76.73,62.451c0.411,1.525-0.529,3.17-2.055,3.581
			L59.12,70.2l15.556,4.166c1.525,0.412,2.466,1.997,2.055,3.583l0,0c-0.41,1.524-2.055,2.465-3.581,2.054l-25.358-6.811
			l-25.3,6.811c-1.584,0.411-3.169-0.529-3.58-2.054l0,0c-0.411-1.586,0.528-3.171,2.054-3.583L36.521,70.2l-15.555-4.168
			c-1.526-0.411-2.465-2.056-2.054-3.581l0,0c0.411-1.585,1.996-2.524,3.58-2.056l25.3,6.752l25.358-6.752
			C74.676,59.927,76.32,60.866,76.73,62.451L76.73,62.451z M40.454,28.875c2.348,0,4.285,3.345,4.285,7.396
			c0,4.109-1.938,7.397-4.285,7.397c-2.406,0-4.285-3.288-4.285-7.397C36.169,32.22,38.048,28.875,40.454,28.875L40.454,28.875z
			 M55.187,28.875c2.408,0,4.285,3.345,4.285,7.396c0,4.109-1.877,7.397-4.285,7.397c-2.347,0-4.284-3.288-4.284-7.397
			C50.902,32.22,52.84,28.875,55.187,28.875L55.187,28.875z M45.502,46.015c0.47,0,0.88,0.646,0.88,1.468
			c0,0.821-0.411,1.526-0.88,1.526s-0.881-0.705-0.881-1.526C44.622,46.661,45.033,46.015,45.502,46.015L45.502,46.015z
			 M50.139,46.015c0.47,0,0.882,0.646,0.882,1.468c0,0.821-0.412,1.526-0.882,1.526c-0.527,0-0.88-0.705-0.88-1.526
			C49.259,46.661,49.611,46.015,50.139,46.015L50.139,46.015z"/>
		<path fill-rule="evenodd" clip-rule="evenodd" fill="#E8E8E5" d="M47.791,16.547c11.271,0,20.369,9.158,20.369,20.369
			c0,6.574-3.111,12.444-7.983,16.144c-1.468,5.693-6.927,8.511-12.386,8.511V16.547z M47.791,73.192v-6.045l25.358-6.752
			c1.526-0.469,3.171,0.471,3.581,2.056l0,0c0.411,1.525-0.529,3.17-2.055,3.581L59.12,70.2l15.556,4.166
			c1.525,0.412,2.466,1.997,2.055,3.583l0,0c-0.41,1.524-2.055,2.465-3.581,2.054L47.791,73.192z M55.187,28.875
			c2.408,0,4.285,3.345,4.285,7.396c0,4.109-1.877,7.397-4.285,7.397c-2.347,0-4.284-3.288-4.284-7.397
			C50.902,32.22,52.84,28.875,55.187,28.875L55.187,28.875z M50.139,46.015c0.47,0,0.882,0.646,0.882,1.468
			c0,0.821-0.412,1.526-0.882,1.526c-0.527,0-0.88-0.705-0.88-1.526C49.259,46.661,49.611,46.015,50.139,46.015L50.139,46.015z"/>
	</g>
</g>
</svg>
