<?xml version="1.0" encoding="utf-8"?>
<!-- Generator: Adobe Illustrator 16.0.3, SVG Export Plug-In . SVG Version: 6.00 Build 0)  -->
<!DOCTYPE svg PUBLIC "-//W3C//DTD SVG 1.1//EN" "http://www.w3.org/Graphics/SVG/1.1/DTD/svg11.dtd">
<svg version="1.1" id="Capa_1" xmlns="http://www.w3.org/2000/svg" xmlns:xlink="http://www.w3.org/1999/xlink" x="0px" y="0px"
	 width="96px" height="96px" viewBox="0 0 96 96" enable-background="new 0 0 96 96" xml:space="preserve">
<g>
	<path fill-rule="evenodd" clip-rule="evenodd" fill="#B2599C" d="M47.054,1.004C73.011,1.004,94.05,22.042,94.05,48
		c0,25.958-21.039,46.997-46.996,46.997C21.038,94.996,0,73.957,0,48C0,22.042,21.038,1.004,47.054,1.004L47.054,1.004z"/>
	<path fill-rule="evenodd" clip-rule="evenodd" fill="#A34188" d="M47.054,1.004C73.011,1.004,94.05,22.042,94.05,48
		c0,25.958-21.039,46.997-46.996,46.997V1.004z"/>
	<path fill-rule="evenodd" clip-rule="evenodd" fill="#F5B302" d="M46.818,22.042h0.235h0.179c22.46,0,40.595,21.275,40.595,25.957
		c0,4.682-18.135,25.958-40.595,25.958h-0.179h-0.235C24.356,73.957,6.223,52.682,6.223,48
		C6.223,43.318,24.356,22.042,46.818,22.042L46.818,22.042z M47.054,36.622c6.282,0,11.379,5.097,11.379,11.378
		c0,6.282-5.097,11.379-11.379,11.379c-6.34,0-11.378-5.098-11.378-11.379C35.676,41.718,40.713,36.622,47.054,36.622L47.054,36.622
		z M46.877,28.74l0.177,0.059l0.119-0.059C64.596,28.74,78.7,44.563,78.7,48c0,3.438-14.104,19.26-31.527,19.26l-0.119-0.059
		l-0.177,0.059c-17.423,0-31.528-15.822-31.528-19.26C15.349,44.563,29.454,28.74,46.877,28.74L46.877,28.74z"/>
	<path fill-rule="evenodd" clip-rule="evenodd" fill="#FD7300" d="M47.054,22.042h0.179c22.46,0,40.595,21.275,40.595,25.957
		c0,4.682-18.135,25.958-40.595,25.958h-0.179v-6.756l0.119,0.059C64.596,67.26,78.7,51.438,78.7,48
		c0-3.437-14.104-19.26-31.527-19.26l-0.119,0.059V22.042z M47.054,59.379V36.622c6.282,0,11.379,5.097,11.379,11.378
		C58.433,54.281,53.336,59.379,47.054,59.379L47.054,59.379z"/>
</g>
</svg>
