<?xml version="1.0" encoding="utf-8"?>
<!-- Generator: Adobe Illustrator 16.0.3, SVG Export Plug-In . SVG Version: 6.00 Build 0)  -->
<!DOCTYPE svg PUBLIC "-//W3C//DTD SVG 1.1//EN" "http://www.w3.org/Graphics/SVG/1.1/DTD/svg11.dtd">
<svg version="1.1" id="Capa_1" xmlns="http://www.w3.org/2000/svg" xmlns:xlink="http://www.w3.org/1999/xlink" x="0px" y="0px"
	 width="96px" height="96px" viewBox="0 0 96 96" enable-background="new 0 0 96 96" xml:space="preserve">
<g>
	<path fill-rule="evenodd" clip-rule="evenodd" fill="#916939" d="M48.534,1.505C74.751,1.505,96,22.753,96,48.97
		c0,26.277-21.249,47.525-47.466,47.525c-26.277,0-47.525-21.248-47.525-47.525C1.009,22.753,22.257,1.505,48.534,1.505
		L48.534,1.505z"/>
	<path fill-rule="evenodd" clip-rule="evenodd" fill="#8C6434" d="M48.534,1.505C74.751,1.505,96,22.753,96,48.97
		c0,26.277-21.249,47.525-47.466,47.525V1.505z"/>
	<path fill-rule="evenodd" clip-rule="evenodd" fill="#7E6754" d="M21.419,73.092c-5.626-1.616-5.866-3.232-4.07-7.542
		c6.824-16.699,16.82-32.321,25.738-41.839c1.676-1.796,4.01-1.496,5.925,0c2.814,2.095,3.292,5.627,5.926,9.157
		c0.958,1.317,7.9,1.078,8.859,2.515c0.838,1.257,1.735,2.634,2.573,4.07c1.018,1.735,1.976,3.472,2.873,5.088
		c1.976,3.531,2.335,4.669,0.18,8.2L57.932,71.596c-1.796,2.933-3.353,3.891-6.764,3.891C39.675,75.666,27.704,74.828,21.419,73.092
		L21.419,73.092z M76.786,58.966c1.018,2.155,1.975,4.369,2.873,6.584c1.796,4.31,1.616,5.926-4.07,7.542
		c-2.334,0.658-5.447,1.197-9.038,1.557c-3.232,0.359-2.813-1.496-1.437-3.651l6.045-10.056
		C73.974,56.393,74.452,53.998,76.786,58.966L76.786,58.966z"/>
	<path fill-rule="evenodd" clip-rule="evenodd" fill="#624027" d="M48.534,23.352c0.119,0.061,0.299,0.18,0.479,0.359
		c2.814,2.095,3.292,5.627,5.926,9.157c0.958,1.317,7.9,1.078,8.859,2.515c0.838,1.257,1.735,2.634,2.573,4.07
		c1.018,1.735,1.976,3.472,2.873,5.088c1.976,3.531,2.335,4.669,0.18,8.2L57.932,71.596c-1.796,2.933-3.353,3.891-6.764,3.891
		c-0.897,0.06-1.796,0.06-2.634,0.06V23.352z M62.062,21.137c2.454,0,5.687,2.574,5.687,4.908c0,2.275-3.173,5.148-5.626,5.148
		c-2.515,0-3.293-2.873-3.293-5.148C58.829,23.711,59.548,21.137,62.062,21.137L62.062,21.137z M76.786,58.966
		c1.018,2.155,1.975,4.369,2.873,6.584c1.796,4.31,1.616,5.926-4.07,7.542c-2.334,0.658-5.447,1.197-9.038,1.557
		c-3.232,0.359-2.813-1.496-1.437-3.651l6.045-10.056C73.974,56.393,74.452,53.998,76.786,58.966L76.786,58.966z"/>
</g>
</svg>
