<?xml version="1.0" encoding="utf-8"?>
<!-- Generator: Adobe Illustrator 16.0.3, SVG Export Plug-In . SVG Version: 6.00 Build 0)  -->
<!DOCTYPE svg PUBLIC "-//W3C//DTD SVG 1.1//EN" "http://www.w3.org/Graphics/SVG/1.1/DTD/svg11.dtd">
<svg version="1.1" id="Capa_1" xmlns="http://www.w3.org/2000/svg" xmlns:xlink="http://www.w3.org/1999/xlink" x="0px" y="0px"
	 width="96px" height="96px" viewBox="0 0 96 96" enable-background="new 0 0 96 96" xml:space="preserve">
<g>
	<path fill-rule="evenodd" clip-rule="evenodd" fill="#748789" d="M47.97,0.51c26.354,0,47.775,21.36,47.775,47.715
		C95.745,74.64,74.324,96,47.97,96S0.255,74.64,0.255,48.225C0.255,21.87,21.615,0.51,47.97,0.51L47.97,0.51z"/>
	<path fill-rule="evenodd" clip-rule="evenodd" fill="#5E7072" d="M47.97,0.51c26.354,0,47.775,21.36,47.775,47.715
		C95.745,74.64,74.324,96,47.97,96V0.51z"/>
	<path fill-rule="evenodd" clip-rule="evenodd" fill="#57BBAF" d="M49.053,71.812l19.556-34.057c0.481-0.902-0.12-1.864-1.083-1.864
		L28.294,36.01c-1.204,0-1.685,0.843-1.083,1.866l19.735,33.936C47.549,72.895,48.391,72.895,49.053,71.812L49.053,71.812z
		 M41.11,86.373l-9.025-5.175c-0.963-0.601-1.444-1.324-1.444-2.467v-4.813c0-1.806,0.842-2.046,2.226-1.203l12.154,6.979
		c1.625,1.083,4.092,1.083,5.716,0l12.095-6.979c1.443-0.843,2.287-0.603,2.287,1.203v4.813c0,1.143-0.482,1.866-1.444,2.467
		l-9.086,5.175C50.137,89.021,45.624,89.021,41.11,86.373L41.11,86.373z M84.193,35.469v10.47c0,1.083-0.422,1.926-1.385,2.467
		l-4.212,2.407c-1.564,0.902-2.166,0.301-2.166-1.323V35.469c0.12-1.985-1.144-4.092-2.888-4.934l-12.095-7.04
		c-1.444-0.782-1.685-1.625-0.12-2.527l4.211-2.467c0.963-0.542,1.865-0.481,2.828,0.061l9.086,5.234
		C81.906,26.383,84.193,30.294,84.193,35.469L84.193,35.469z M18.546,23.676l9.026-5.235c0.962-0.541,1.925-0.602,2.828-0.06
		l4.212,2.406c1.564,0.902,1.323,1.806-0.061,2.588l-12.154,6.979c-1.745,0.902-2.948,3.068-2.828,4.994v13.96
		c0,1.624-0.662,2.286-2.166,1.384l-4.212-2.407c-0.962-0.542-1.384-1.384-1.384-2.527V35.349
		C11.807,30.174,14.034,26.263,18.546,23.676L18.546,23.676z"/>
	<path fill-rule="evenodd" clip-rule="evenodd" fill="#40A393" d="M49.053,71.812l19.556-34.057c0.481-0.902-0.12-1.864-1.083-1.864
		L47.97,35.95v36.704C48.331,72.654,48.752,72.354,49.053,71.812L49.053,71.812z M47.97,80.477v7.883
		c2.227-0.061,4.452-0.662,6.619-1.986l9.086-5.175c0.962-0.601,1.444-1.324,1.444-2.467v-4.813c0-1.806-0.844-2.046-2.287-1.203
		l-12.095,6.979C49.955,80.176,48.993,80.477,47.97,80.477L47.97,80.477z M84.193,35.469v10.47c0,1.083-0.422,1.926-1.385,2.467
		l-4.212,2.407c-1.564,0.902-2.166,0.301-2.166-1.323V35.469c0.12-1.985-1.144-4.092-2.888-4.934l-12.095-7.04
		c-1.444-0.782-1.685-1.625-0.12-2.527l4.211-2.467c0.963-0.542,1.865-0.481,2.828,0.061l9.086,5.234
		C81.906,26.383,84.193,30.294,84.193,35.469L84.193,35.469z"/>
</g>
</svg>
