<?xml version="1.0" encoding="utf-8"?>
<!-- Generator: Adobe Illustrator 16.0.3, SVG Export Plug-In . SVG Version: 6.00 Build 0)  -->
<!DOCTYPE svg PUBLIC "-//W3C//DTD SVG 1.1//EN" "http://www.w3.org/Graphics/SVG/1.1/DTD/svg11.dtd">
<svg version="1.1" id="Capa_1" xmlns="http://www.w3.org/2000/svg" xmlns:xlink="http://www.w3.org/1999/xlink" x="0px" y="0px"
	 width="96px" height="96px" viewBox="0 0 96 96" enable-background="new 0 0 96 96" xml:space="preserve">
<g>
	<path fill-rule="evenodd" clip-rule="evenodd" fill="#59ADCB" d="M48.725,0.755C74.863,0.755,96,21.892,96,47.97
		c0,26.139-21.137,47.275-47.275,47.275C22.646,95.245,1.51,74.108,1.51,47.97C1.51,21.892,22.646,0.755,48.725,0.755L48.725,0.755z
		"/>
	<path fill-rule="evenodd" clip-rule="evenodd" fill="#306F9B" d="M48.725,0.755C74.863,0.755,96,21.892,96,47.97
		c0,26.139-21.137,47.275-47.275,47.275V0.755z"/>
	<path fill-rule="evenodd" clip-rule="evenodd" fill="#CEEDF2" d="M68.254,18.14c-8.871,1.132-18.1,4.942-25.661,10.361
		c-26.257,18.814-17.505,49.419,9.11,46.263c11.252-1.311,17.504-10.182,17.266-18.994c-0.119-4.644-1.965-8.156-5.895-12.92
		c-7.084-8.454-2.68-17.922,6.133-22.805C71.768,18.617,70.934,17.783,68.254,18.14L68.254,18.14z"/>
	<path fill-rule="evenodd" clip-rule="evenodd" fill="#7ACDE1" d="M68.254,18.14c-6.549,0.834-13.336,3.156-19.529,6.491v50.371
		c1.013,0,1.964-0.119,2.978-0.238c11.252-1.311,17.504-10.182,17.266-18.994c-0.119-4.644-1.965-8.156-5.895-12.92
		c-7.084-8.454-2.68-17.922,6.133-22.805C71.768,18.617,70.934,17.783,68.254,18.14L68.254,18.14z"/>
	<path fill-rule="evenodd" clip-rule="evenodd" fill="#FFFFFF" d="M57.537,42.434c1.727,0,3.096,1.727,3.096,3.87
		c0,2.202-1.369,3.93-3.096,3.93s-3.096-1.728-3.096-3.93C54.441,44.16,55.811,42.434,57.537,42.434L57.537,42.434z"/>
	<path fill-rule="evenodd" clip-rule="evenodd" fill="#FFFFFF" d="M61.646,50.53c0.654,0,1.189,0.655,1.189,1.489
		c0,0.773-0.535,1.429-1.189,1.429c-0.656,0-1.133-0.655-1.133-1.429C60.514,51.186,60.99,50.53,61.646,50.53L61.646,50.53z"/>
</g>
</svg>
